<svg xmlns="http://www.w3.org/2000/svg" xmlns:svg="http://www.w3.org/2000/svg" id="Capa_1" width="48" height="48" x="0" y="0" version="1.1" viewBox="0 0 48 48" xml:space="preserve"><metadata id="metadata61"/><style id="style46" type="text/css"/><g id="g54" transform="matrix(0.54135135,0,0,0.54134628,-16.601351,-16.090787)"><path id="path48" d="M 119.3335,106.84619 H 30.6665 V 49.27246 h 27.41211 l 3.53223,-6.11865 h 26.77832 l 3.53223,6.11865 h 27.41211 z m -83.667,-5 h 78.66699 V 54.27246 H 89.03467 L 85.50244,48.15381 H 64.49756 l -3.53223,6.11865 H 35.6665 Z"/><path id="path50" d="m 75.00049,93.9043 c -8.64551,0 -15.67871,-7.0332 -15.67871,-15.67773 0,-8.64502 7.0332,-15.67822 15.67871,-15.67822 8.64453,0 15.67773,7.0332 15.67773,15.67822 0,8.64452 -7.0332,15.67773 -15.67773,15.67773 z m 0,-26.35596 c -5.88867,0 -10.67871,4.79004 -10.67871,10.67822 0,5.8877 4.79004,10.67773 10.67871,10.67773 5.8877,0 10.67773,-4.79004 10.67773,-10.67773 0,-5.88818 -4.79004,-10.67822 -10.67773,-10.67822 z"/><circle id="circle52" cx="98" cy="61.941" r="1.882"/></g></svg>