<svg xmlns="http://www.w3.org/2000/svg" xmlns:svg="http://www.w3.org/2000/svg" id="Capa_1" width="48" height="48" data-name="Capa 1" version="1.1" viewBox="0 0 48 48"><metadata id="metadata23"/><title id="title2">icon</title><path id="path4" d="M 30.867753,16.80466 H 20.13433 V 12.619473 H 17.132135 V 16.80466 H -2.1645e-7 V 47.672408 H 30.867753 v -16.47688 h 4.841916 v -3.00218 H 30.867753 Z M 27.865562,44.670218 H 3.0021908 V 19.806846 H 27.865558 Z" style="stroke-width:.48742956"/><polygon id="polygon6" points="124.238 89.762 124.238 77.444 118.079 77.444 118.079 83.603 111.919 83.603 111.919 89.762" transform="matrix(0.48742955,0,0,0.48742955,-12.557272,-12.557121)"/><polygon id="polygon8" points="60.91 77.444 60.91 89.762 73.229 89.762 73.229 83.603 67.069 83.603 67.069 77.444" transform="matrix(0.48742955,0,0,0.48742955,-12.557272,-12.557121)"/><polygon id="polygon10" points="60.91 26.434 60.91 38.753 67.069 38.753 67.069 32.594 73.229 32.594 73.229 26.434" transform="matrix(0.48742955,0,0,0.48742955,-12.557272,-12.557121)"/><rect id="rect12" width="6.286" height="3.002" x="29.422" y=".328" style="stroke-width:.48742956"/><polygon id="polygon14" points="118.079 38.753 124.238 38.753 124.238 26.434 111.919 26.434 111.919 32.594 118.079 32.594" transform="matrix(0.48742955,0,0,0.48742955,-12.557272,-12.557121)"/><rect id="rect16" width="3.002" height="6.286" x="44.998" y="12.618" style="stroke-width:.48742956"/></svg>