<svg xmlns="http://www.w3.org/2000/svg" xmlns:svg="http://www.w3.org/2000/svg" id="Capa_1" width="48" height="48" x="0" y="0" version="1.1" viewBox="0 0 48 48" xml:space="preserve"><metadata id="metadata23"/><style id="style2" type="text/css"/><g id="g16" transform="matrix(0.45606533,0,0,0.45606533,-8.8837741,-8.8826504)"><g id="g8"><polygon id="polygon4" points="117.681 63.213 113.475 72.781 112.351 88.622 124.727 60.473 114.662 56.048 114.261 61.71"/><polygon id="polygon6" points="101.609 113.054 72.712 111.005 97.683 121.984"/></g><polygon id="polygon10" points="105.89 47.516 103.92 75.291 108.128 89.419 53.187 105.781 106.846 109.585 111.6 42.563 93.797 41.3 95.428 46.774"/><path id="path12" d="M 83.87614,22.22247 19.47917,41.40116 38.65525,105.80075 103.05484,86.62206 Z M 80.27998,28.87199 91.11545,65.26036 70.7337,50.65516 66.41779,61.31362 75.07874,67.80623 73.9097,69.24146 46.94888,49.28507 35.17326,75.37718 26.12869,44.99733 Z"/><ellipse id="ellipse14" cx="76.402" cy="40.934" rx="3.674" ry="3.674" transform="matrix(0.9584,-0.28542,0.28542,0.9584,-8.50527,23.50941)"/></g></svg>