<svg xmlns="http://www.w3.org/2000/svg" xmlns:svg="http://www.w3.org/2000/svg" id="Capa_1" width="48" height="48" data-name="Capa 1" version="1.1" viewBox="0 0 48 48"><metadata id="metadata13"/><title id="title2">icon</title><polygon id="polygon4" points="92.288 119.409 24.943 119.409 24.943 60.587 18.783 60.587 18.783 125.569 98.447 125.569 98.447 108.465 92.288 108.465" transform="matrix(0.42691891,0,0,0.42691891,-8.0188179,-8.0190122)"/><path id="path6" d="M 26.386654,14.722485 V 4.6192225 L 10.078151,21.948454 26.386654,39.278967 V 28.686529 C 45.771462,25.951754 46,8.1179165 46,7.9343415 v -3.52311 l -2.308508,2.661588 c -6.189838,7.1373755 -14.3351,7.6843315 -17.304838,7.6496655 z m -1.452126,11.493758 -1.177366,0.123255 v 6.309243 L 13.688566,21.948446 23.757162,11.249431 v 5.865012 l 1.1427,0.150212 a 16.200151,16.200151 0 0 0 1.99138,0.103997 24.927731,24.927731 0 0 0 15.98752,-5.803365 c -1.154256,4.940579 -5.017608,13.289986 -17.944234,14.650956 z" style="stroke-width:.42691892"/></svg>