<svg xmlns="http://www.w3.org/2000/svg" xmlns:svg="http://www.w3.org/2000/svg" id="Capa_1" width="48" height="48" data-name="Capa 1" version="1.1" viewBox="0 0 48 48"><metadata id="metadata13"/><title id="title2">icon</title><polygon id="polygon4" points="92.288 119.409 24.943 119.409 24.943 60.587 18.783 60.587 18.783 125.569 98.447 125.569 98.447 108.465 92.288 108.465" transform="matrix(0.42691891,0,0,0.42691891,-8.0188179,-8.0190122)"/><path id="path6" d="M 31.691497,26.967714 V 37.070976 L 48,19.741744 31.691497,2.4112315 V 13.00367 C 12.306689,15.738445 12.078151,33.572282 12.078151,33.755857 v 3.52311 l 2.308508,-2.661588 c 6.189838,-7.137375 14.3351,-7.684331 17.304838,-7.649665 z M 33.143623,15.473955 34.320989,15.3507 V 9.0414572 L 44.389585,19.741753 34.320989,30.440768 v -5.865012 l -1.1427,-0.150212 a 16.200151,16.200151 0 0 0 -1.99138,-0.103997 24.927731,24.927731 0 0 0 -15.98752,5.803365 c 1.154256,-4.940579 5.017608,-13.289986 17.944234,-14.650957 z" style="stroke-width:.42691892"/></svg>